<mxfile host="app.diagrams.net" modified="2023-06-29T07:20:54.903Z" agent="Mozilla/5.0 (Windows NT 10.0; Win64; x64) AppleWebKit/537.36 (KHTML, like Gecko) Chrome/114.0.0.0 Safari/537.36" version="21.5.0" etag="D_ppkaYY8fad-nc9zlmH" type="github">
  <diagram name="Strona-1" id="tnaCR7x1-8iiKABBSDAX">
    <mxGraphModel>
      <root>
        <mxCell id="0" />
        <mxCell id="1" parent="0" />
      </root>
    </mxGraphModel>
  </diagram>
</mxfile>
